{"title":"3 A.M. { 2014} - Hindi Movies - HDCAM - x264 - 1CD - AC-3 - Cool","uid":11129836,"size":451373941,"categoryP":"video","categoryS":"movies","magnet":"?xt=urn:btih:65a92a5e0eb4e630d245b6ecc6dabe299c14deb3&amp;dn=3+A.M.+%7B+2014%7D+-+Hindi+Movies+-+HDCAM+-+x264+-+1CD+-+AC-3+-+Cool&amp;tr=udp%3A%2F%2Ftracker.openbittorrent.com%3A80&amp;tr=udp%3A%2F%2Fopen.demonii.com%3A1337&amp;tr=udp%3A%2F%2Ftracker.coppersurfer.tk%3A6969&amp;tr=udp%3A%2F%2Fexodus.desync.com%3A6969","seeders":1,"leechers":1,"uploader":"inovai","files":14,"time":1412024552,"description":"3 A.M. { 2014} - Hindi Movies - HDCAM - x264 - 1CD - AC-3 - Cool_Candy\n\nCover:\n &lt;a href=&quot;\nhttp://forum.primetimeshow.in/viewtopic.php?f=7&amp;t=739&quot; rel=&quot;nofollow&quot; target=&quot;_NEW&quot;&gt;\nhttp://forum.primetimeshow.in/viewtopic.php?f=7&amp;t=739&lt;/a&gt;\n\nScreenshots:\n &lt;a href=&quot;\nhttp://m.primetimeshow.in/share-174C_5429A929.html&quot; rel=&quot;nofollow&quot; target=&quot;_NEW&quot;&gt;\nhttp://m.primetimeshow.in/share-174C_5429A929.html&lt;/a&gt;\n &lt;a href=&quot;\nhttp://m.primetimeshow.in/share-D12E_5429A929.html&quot; rel=&quot;nofollow&quot; target=&quot;_NEW&quot;&gt;\nhttp://m.primetimeshow.in/share-D12E_5429A929.html&lt;/a&gt;\n &lt;a href=&quot;\nhttp://m.primetimeshow.in/share-48A8_5429A929.html&quot; rel=&quot;nofollow&quot; target=&quot;_NEW&quot;&gt;\nhttp://m.primetimeshow.in/share-48A8_5429A929.html&lt;/a&gt;\n &lt;a href=&quot;\nhttp://m.primetimeshow.in/share-F2FF_5429A929.html&quot; rel=&quot;nofollow&quot; target=&quot;_NEW&quot;&gt;\nhttp://m.primetimeshow.in/share-F2FF_5429A929.html&lt;/a&gt;\n &lt;a href=&quot;\nhttp://m.primetimeshow.in/share-8A91_5429A929.html&quot; rel=&quot;nofollow&quot; target=&quot;_NEW&quot;&gt;\nhttp://m.primetimeshow.in/share-8A91_5429A929.html&lt;/a&gt;\n\n\nGeneral\nUnique ID : 22811427972681976035937430764594240968 (0x1129523B84C458E1827BDE69DAD59DC8)\n\n\nComplete name : 3 A.M. { 2014} - Hindi Movies - HDCAM - x264 - 1CD - AC-3 - Cool_Candy.mkv\n\n\nFormat : Matroska\nFormat version : Version 4 / Version 2\nFile size : 429 MiB\nDuration : 1h 24mn\nOverall bit rate : 707 Kbps\nWriting application : Lavf55.19.104\nWriting library : Lavf55.19.104\n\n\nVideo\n\nID : 1\nFormat : AVC\nFormat/Info : Advanced Video Codec\nFormat profile : &lt;a class=&quot;__cf_email__&quot; href=&quot;/cdn-cgi/l/email-protection&quot; data-cfemail=&quot;e4a6859781888d8a81a4a8d5cad7&quot;&gt;[email&amp;#160;protected]&lt;/a&gt;&lt;script data-cfhash='f9e31' type=&quot;text/javascript&quot;&gt;\n/* &lt;![CDATA[ */!function(){try{var t=&quot;currentScript&quot;in document?document.currentScript:function(){for(var t=document.getElementsByTagName(&quot;script&quot;),e=t.length;e--;)if(t[e].getAttribute(&quot;data-cfhash&quot;))return t[e]}();if(t&amp;&amp;t.previousSibling){var e,r,n,i,c=t.previousSibling,a=c.getAttribute(&quot;data-cfemail&quot;);if(a){for(e=&quot;&quot;,r=parseInt(a.substr(0,2),16),n=2;a.length-n;n+=2)i=parseInt(a.substr(n,2),16)^r,e+=String.fromCharCode(i);e=document.createTextNode(e),c.parentNode.replaceChild(e,c)}t.parentNode.removeChild(t);}}catch(u){}}()/* ]]&gt; */&lt;/script&gt;\nFormat settings, CABAC : No\nFormat settings, ReFrames : 2 frames\nCodec ID : V_MPEG4/ISO/AVC\nDuration : 1h 24mn\nBit rate : 512 Kbps\nWidth : 608 pixels\nHeight : 248 pixels\nDisplay aspect ratio : 2.40:1\nFrame rate mode : Constant\nFrame rate : 24.000 fps\nColor space : YUV\nChroma subsampling : 4:2:0\nBit depth : 8 bits\nScan type : Progressive\nBits/(Pixel*Frame) : 0.141\nStream size : 304 MiB (71%)\nWriting library : x264 core 140 r2377 1ca7bb9\nEncoding settings : Cool_Candy\nDefault : Yes\nForced : No\n\n\nAudio\n\nID : 2\nFormat : AC-3\nFormat/Info : Audio Coding 3\nMode extension : CM (complete main)\nFormat settings, Endianness : Big\nCodec ID : A_AC3\nDuration : 1h 24mn\nBit rate mode : Constant\nBit rate : 192 Kbps\nChannel(s) : 2 channels\nChannel positions : Front: L R\nSampling rate : 48.0 KHz\nBit depth : 16 bits\nCompression mode : Lossy\nDelay relative to video : -88ms\nStream size : 116 MiB (27%)\nDefault : Yes\nForced : No\n\nThanks to Cool_Candy!!\n\nSeed n Enjoy!!","torrent":{"xt":"urn:btih:65a92a5e0eb4e630d245b6ecc6dabe299c14deb3","amp;dn":"3+A.M.+%7B+2014%7D+-+Hindi+Movies+-+HDCAM+-+x264+-+1CD+-+AC-3+-+Cool","amp;tr":["udp%3A%2F%2Ftracker.openbittorrent.com%3A80","udp%3A%2F%2Fopen.demonii.com%3A1337","udp%3A%2F%2Ftracker.coppersurfer.tk%3A6969","udp%3A%2F%2Fexodus.desync.com%3A6969"],"infoHash":"65a92a5e0eb4e630d245b6ecc6dabe299c14deb3","infoHashBuffer":{"type":"Buffer","data":[101,169,42,94,14,180,230,48,210,69,182,236,198,218,190,41,156,20,222,179]},"announce":[],"urlList":[]}}